<svg width="64" height="64.02" version="1.1" viewBox="0 0 64 64.02" xmlns="http://www.w3.org/2000/svg"><g transform="translate(-1.357 -.7785)"><rect x="5.402" y="4.827" width="55.91" height="55.93" ry="5.187" fill="#91a666" stroke="#91a666" stroke-linecap="round" stroke-linejoin="round" stroke-width="8.089"/><rect x="25.42" y=".7862" width="16.38" height="16.14" fill="#647444"/><rect x="25.41" y="16.92" width="16.4" height="6.868" fill="#2f2f2f"/><path d="m28.94 26.45c-0.5634 0.1284-0.9579 0.68-0.9378 1.251-0.05312 1.325-0.08034 2.652-0.0828 3.979 0.0344 0.639 0.6287 1.162 1.265 1.129 2.977 0.04444 5.964 0.07038 8.935 0.09784 0.6503-3.64e-4 1.199-0.6045 1.165-1.249-0.03472-1.385-0.03932-2.771-0.08826-4.153-0.04026-0.635-0.6546-1.132-1.281-1.086-2.922 0.0048-5.846-0.0094-8.768 7e-3 -0.06916 0.0078-0.1383 0.0158-0.2075 0.02364z" fill="#b6b6b6"/><path d="m27.3 25.68-0.2779 12.65c-0.2309 10.51 13.27 11.66 13.1 0.305l-0.1936-12.97z" fill="none" stroke="#fff" stroke-width="3.844"/><path d="m39.75 33.73-12.43-0.1152" fill="#fff" stroke="#fff" stroke-width="4px"/><rect x="33.57" y="4.576" width="4.115" height="4.115" fill="#b6b6b6"/><rect x="29.46" y=".7785" width="4.115" height="3.798" fill="#b6b6b6"/><rect x="29.46" y="8.692" width="4.115" height="4.115" fill="#b6b6b6"/><rect x="33.57" y="12.81" width="4.115" height="4.115" fill="#b6b6b6"/></g></svg>
