<?xml version="1.0" encoding="UTF-8" standalone="no"?>
<!-- Created with Inkscape (http://www.inkscape.org/) -->

<svg
   width="16mm"
   height="16mm"
   viewBox="0 0 15.999999 15.999999"
   version="1.1"
   id="svg5"
   inkscape:version="1.4 (e7c3feb100, 2024-10-09)"
   sodipodi:docname="chrome.svg"
   xml:space="preserve"
   xmlns:inkscape="http://www.inkscape.org/namespaces/inkscape"
   xmlns:sodipodi="http://sodipodi.sourceforge.net/DTD/sodipodi-0.dtd"
   xmlns="http://www.w3.org/2000/svg"
   xmlns:svg="http://www.w3.org/2000/svg"><sodipodi:namedview
     id="namedview7"
     pagecolor="#505050"
     bordercolor="#000000"
     borderopacity="1"
     inkscape:pageshadow="0"
     inkscape:pageopacity="0"
     inkscape:pagecheckerboard="1"
     inkscape:document-units="mm"
     showgrid="false"
     inkscape:zoom="2.8284271"
     inkscape:cx="33.410795"
     inkscape:cy="24.04163"
     inkscape:window-width="1402"
     inkscape:window-height="867"
     inkscape:window-x="0"
     inkscape:window-y="0"
     inkscape:window-maximized="1"
     inkscape:current-layer="layer1"
     inkscape:showpageshadow="0"
     inkscape:deskcolor="#292929" /><defs
     id="defs2"><circle
       id="A"
       cx="96"
       cy="96"
       r="88" /><path
       id="B"
       d="m 8,184 h 83.77 l 38.88,-38.88 V 116 H 61.35 L 8,24.48 Z" /><path
       id="F"
       d="m 8,184 h 83.77 l 38.88,-38.88 V 116 H 61.35 L 8,24.48 Z" /><path
       id="I"
       d="m 96,56 34.65,60 -38.88,68 H 184 V 56 Z" /><path
       id="L"
       d="M 21.97,8 V 48.34 L 61.36,116 96,56 h 88 V 8 Z" /></defs><g
     inkscape:label="Layer 1"
     inkscape:groupmode="layer"
     id="layer1"
     transform="translate(-176.38759,-182.05931)"><ellipse
       style="font-variation-settings:'wght' 100;opacity:1;fill:#109f5b;fill-opacity:1;stroke:#109f5b;stroke-width:1.66044;stroke-linecap:round;stroke-linejoin:round;stroke-miterlimit:4;stroke-dasharray:none;stroke-dashoffset:90.7465;stroke-opacity:1;paint-order:fill markers stroke"
       id="path2369-3"
       cx="184.38759"
       cy="190.05931"
       rx="7.1697779"
       ry="7.1697798" /><path
       style="opacity:1;fill:#ffce41;fill-opacity:1;stroke:none;stroke-width:0.529167;stroke-linecap:round;stroke-linejoin:round;stroke-opacity:1"
       d="m 187.72699,188.30541 2.66887,-3.46608 c 0.18621,-0.10899 1.85025,2.28455 1.9509,4.36141 0.003,0.0601 0.0115,0.11929 0.0155,0.17841 0.38986,5.66291 -4.43153,9.42766 -9.40726,8.55154 l 4.32597,-5.67459 0.82036,-2.32541 z"
       id="path1"
       sodipodi:nodetypes="ccsscccc" /><path
       style="opacity:1;fill:#dd4d3e;fill-opacity:1;stroke:none;stroke-width:0.529167;stroke-linecap:round;stroke-linejoin:round;stroke-opacity:1"
       d="m 181.11701,188.42003 -2.98998,-3.34036 c 0.6533,-0.85475 1.43981,-1.52094 2.30789,-2.00652 3.3155,-1.85459 7.75081,-1.08903 10.13291,1.88228 l -2.8197,3.4646 z"
       id="path2"
       sodipodi:nodetypes="ccsccc" /><circle
       style="font-variation-settings:'wght' 100;opacity:1;fill:#4c8bf5;fill-opacity:1;stroke:#ffffff;stroke-width:0.858283;stroke-linecap:round;stroke-linejoin:round;stroke-miterlimit:4;stroke-dasharray:none;stroke-dashoffset:90.7465;paint-order:fill markers stroke"
       id="path2369"
       cx="184.38759"
       cy="190.05931"
       r="3.706028" /></g><style
     id="style47381"><![CDATA[.B{clip-path:url(#C)}.C{fill:#3e2723}.D{fill-opacity:.15}.E{fill-opacity:.2}]]></style></svg>
