<?xml version="1.0" encoding="UTF-8" standalone="no"?>
<!-- Created with Inkscape (http://www.inkscape.org/) -->

<svg
   version="1.1"
   id="svg2"
   width="64"
   height="64.020134"
   viewBox="0 0 64 64.020132"
   sodipodi:docname="portal2.svg"
   inkscape:version="1.4 (e7c3feb100, 2024-10-09)"
   xml:space="preserve"
   xmlns:inkscape="http://www.inkscape.org/namespaces/inkscape"
   xmlns:sodipodi="http://sodipodi.sourceforge.net/DTD/sodipodi-0.dtd"
   xmlns="http://www.w3.org/2000/svg"
   xmlns:svg="http://www.w3.org/2000/svg"><defs
     id="defs6" /><sodipodi:namedview
     id="namedview4"
     pagecolor="#505050"
     bordercolor="#000000"
     borderopacity="1"
     inkscape:pageshadow="0"
     inkscape:pageopacity="0"
     inkscape:pagecheckerboard="1"
     showgrid="false"
     inkscape:zoom="4"
     inkscape:cx="-27.375"
     inkscape:cy="19.75"
     inkscape:window-width="1402"
     inkscape:window-height="867"
     inkscape:window-x="0"
     inkscape:window-y="0"
     inkscape:window-maximized="0"
     inkscape:current-layer="g8"
     inkscape:snap-bbox="false"
     inkscape:snap-bbox-edge-midpoints="false"
     inkscape:snap-bbox-midpoints="false"
     inkscape:object-nodes="false"
     inkscape:bbox-nodes="false"
     inkscape:bbox-paths="false"
     inkscape:object-paths="false"
     inkscape:snap-intersection-paths="false"
     inkscape:snap-smooth-nodes="false"
     inkscape:snap-midpoints="false"
     inkscape:snap-page="false"
     showguides="false"
     inkscape:showpageshadow="0"
     inkscape:deskcolor="#2f2f2f" /><g
     inkscape:groupmode="layer"
     inkscape:label="Image"
     id="g8"
     transform="translate(-1.3572149,-0.78290749)"><rect
       style="fill:#1a1a1a;fill-opacity:1;stroke:#1a1a1a;stroke-width:8.08908;stroke-linecap:round;stroke-linejoin:round;stroke-miterlimit:4;stroke-dasharray:none;stroke-opacity:1"
       id="rect1002"
       width="55.910919"
       height="55.931053"
       x="5.4017549"
       y="4.8274474"
       ry="5.1870904" /><path
       style="opacity:1;fill:#cccccc;fill-opacity:1;stroke:none;stroke-width:6;stroke-linecap:round;stroke-linejoin:round;stroke-opacity:1;paint-order:stroke markers fill"
       d="m 27.294377,48.835205 c 1.325318,0 1.648272,-0.137979 1.6875,-1.6875 l 0.125,-4.9375 c 0.03266,-1.289941 -0.448037,-1.762952 -1.9375,-1.75 l -7.1875,0.0625 c 0.02106,-0.147438 8.961014,-5.103125 9.125,-8.677433 0.208872,-4.552663 -0.09377,-12.798353 -0.0625,-14.260067 0.03773,-1.763938 -1.184993,-2.395597 -3.6875,-2.375 l -15.1875,0.125 c -1.3529025,0.01113 -1.9079085,0.681582 -1.9374995,2.0625 l -0.1875,8.75 c -0.02652,1.237504 0.328681,1.711092 1.4375,1.6875 l 5.8749995,-0.125 c 0.875793,-0.01863 1.125,-0.491117 1.125,-1.375 v -2.6875 h 4.1875 l 0.125,6.25 c 0.04976,2.487999 -12.6249995,10.349677 -12.6249995,12.625 v 4.5625 c 0,1.26033 0.419143,1.75 1.6875,1.75 z"
       id="path1"
       sodipodi:nodetypes="sssscsssssssssccsssss" /><path
       style="opacity:1;fill:#119bcf;fill-opacity:1;stroke:none;stroke-width:6;stroke-linecap:round;stroke-linejoin:round;stroke-opacity:1;paint-order:stroke markers fill"
       d="M 33.357214,61.492117 V 2.6796172 h 4.312163 V 19.617117 l 2.9375,-0.0625 c 2.120046,-0.583786 1.223838,-2.487418 1.25,-4.344898 0.115876,-8.2271695 12.638521,-5.2388994 12.5,0 -0.299811,11.33891 -5.171875,7.752192 -8.5,9.782398 l 0.0625,1.8125 c -0.03748,0.985089 0.337521,1.380922 1.125,1.1875 h 2.140625 c 0.828124,-0.09918 1.197917,0.343309 1.109375,1.327464 v 6.735036 c 1.645833,2.770833 4.291667,4.291667 7.9375,4.5625 1.957427,0.145409 2.045105,3.402673 0.3125,3.9375 -0.80989,0.25 -5.607783,0.33125 -7.0625,0.25 -1.77174,-0.09896 -5.5625,-4.406981 -5.75,-10.875 0.166667,-1 -0.583333,-1.625 -2.25,-1.875 -1.066135,2.071403 -0.16821,5.237528 -5.9375,4.6875 l 0.0625,7.625 7.328181,4.828539 c 1.4163,0.9332 1.035911,2.582927 0.325569,3.372475 l -8.02875,8.923986 c -2.109888,2.345149 -3.874663,1.886394 -3.874663,0 z"
       id="path2"
       sodipodi:nodetypes="sccccssccccccsssccccssss" /></g></svg>
