<svg width="64" height="64.02" version="1.1" viewBox="0 0 64 64.02" xml:space="preserve" xmlns="http://www.w3.org/2000/svg" xmlns:xlink="http://www.w3.org/1999/xlink"><g transform="translate(-10.14,-4.205)" stroke-linecap="round" stroke-linejoin="round"><rect x="12.76" y="6.832" width="58.75" height="58.77" ry="4.474" fill="#1a1a1a" stroke="#2f2f2f" stroke-width="5.254"/><rect x="12.37" y="6.438" width="58.84" height="11.43" rx="0" fill="#2f2f2f" stroke="#2f2f2f" stroke-width=".7871" style="paint-order:stroke fill markers"/><circle cx="65.43" cy="11.56" r="3.369" fill="#f00" stroke="#f00" stroke-width="1.118" style="paint-order:stroke fill markers"/></g><g transform="translate(-10.14,-4.205)" fill="#fff" stroke="#fff" stroke-linecap="round" stroke-linejoin="round"><path d="m67.35 13.62-3.827-4.126" stroke-width=".6708"/><path d="m63.52 13.62 3.827-4.126" stroke-width=".6708"/><path d="m46.28 14.79 5.28 0.03148" stroke-width=".6293"/></g><rect x="43.92" y="5.363" width="5.358" height="5.352" fill="none" stroke="#fff" stroke-linecap="round" stroke-linejoin="round" stroke-width=".5134"/><g transform="translate(-10.14,-4.205)" fill="#ffd42a"><path transform="matrix(.05399 .306 -.306 .05399 46.95 51.85)" d="m20.42-31.06c-1.957-0.1596-3.686-9.751-5.005-11.21-1.269-1.399-10.49-3.829-10.33-5.711 0.1596-1.957 9.751-3.686 11.21-5.005 1.399-1.269 3.829-10.49 5.711-10.33 1.957 0.1596 3.686 9.751 5.005 11.21 1.269 1.399 10.49 3.829 10.33 5.711-0.1596 1.957-9.751 3.686-11.21 5.005-1.399 1.269-3.829 10.49-5.711 10.33z" style="paint-order:stroke fill markers"/><path transform="matrix(-.09594 .2955 -.2955 -.09594 10.93 44.29)" d="m20.42-31.06c-1.957-0.1596-3.686-9.751-5.005-11.21-1.269-1.399-10.49-3.829-10.33-5.711 0.1596-1.957 9.751-3.686 11.21-5.005 1.399-1.269 3.829-10.49 5.711-10.33 1.957 0.1596 3.686 9.751 5.005 11.21 1.269 1.399 10.49 3.829 10.33 5.711-0.1596 1.957-9.751 3.686-11.21 5.005-1.399 1.269-3.829 10.49-5.711 10.33z" style="paint-order:stroke fill markers"/><path transform="matrix(-.2382 -.1995 .1995 -.2382 37.07 17.53)" d="m20.42-31.06c-1.957-0.1596-3.686-9.751-5.005-11.21-1.269-1.399-10.49-3.829-10.33-5.711 0.1596-1.957 9.751-3.686 11.21-5.005 1.399-1.269 3.829-10.49 5.711-10.33 1.957 0.1596 3.686 9.751 5.005 11.21 1.269 1.399 10.49 3.829 10.33 5.711-0.1596 1.957-9.751 3.686-11.21 5.005-1.399 1.269-3.829 10.49-5.711 10.33z" style="paint-order:stroke fill markers"/></g><g transform="matrix(.3677 0 0 .3677 38.68 -10.26)" stroke="#333" stroke-linecap="round" stroke-linejoin="round"><g transform="translate(66.61,97.02)" fill="none" stroke-width="3"><path d="m-53.74 63.71 13.12-39.38c2.247-6.974-5.912-16.63-12-5.875l-8.75 15.38-15.88-40c-4.265-9.446-12.91-7.721-12.5 5.25l13.12 31-18-42.12c-2.498-8.735-18.04-13.84-12.37 4.875l18.75 41.75-17.12-36.75c-4.462-7.259-15.71-5.607-11.12 6l15.25 35.87-0.75 0.25-12-28.38c-1.968-5.661-16.58-8.765-9.75 11.12 0 0 17.79 42.53 18 43 8.309 19.07 43.82 22.55 52-2z" style="paint-order:stroke markers fill"/><path d="m-61.68 33.96s-14 5-19.25 22" style="paint-order:stroke markers fill"/></g><path transform="translate(10.14,4.205)" d="m-47.51 74.03c-2.977 0.2952-3.479 4.117-2.975 6.472 1.028 5.941 4.226 11.23 6.425 16.79 4.312 9.994 9.185 19.76 13.06 29.93 0.7136 1.286-1.495 1.671-1.698 0.4198-6.297-12.48-11.59-25.47-18.24-37.77-1.96-2.455-6.471-3.637-8.416-0.5372-1.907 3.501 0.9298 7.314 1.999 10.6 4.391 10.98 9.529 21.66 13.46 32.81-0.05834 1.227-2.604 1.431-2.604-0.1112-4.699-9.598-8.076-19.82-13.08-29.26-1.823-2.228-5.954-3.134-7.619-0.212-1.826 4.489 0.07562 9.491 1.867 13.69 5.939 14.47 11.71 29.04 18.19 43.28 3.861 6.141 10.37 10.26 17.38 11.87 5.136 1.088 10.61 0.8627 15.69-0.4737 6.058-1.78 11.36-6.191 14.22-11.81 5.369-14.52 10.24-29.23 14.69-44.05 0.9098-3.247-1.342-7.394-4.717-8.069-3.271 0.0512-4.61 3.802-6.258 6.047-2.723 4.546-5.263 9.198-7.895 13.8-9.404 3.868-16.38 12.32-19.53 21.86-0.7179 0.8611-2.441 0.161-1.746-1.051 2.712-9.166 9.216-17.1 17.65-21.63 2.082-0.9113 0.2625-3.048-0.1431-4.47-5.033-12.5-9.787-25.14-15.34-37.42-1.268-2.146-4.541-4.118-6.612-1.815-2.87 3.255-2.822 8.237-0.9295 11.98 3.618 9.376 8.09 18.43 11.39 27.92 0.5868 1.525-2.292 1.263-2.065-0.0787-6.266-14.3-12.02-28.82-18.69-42.94-1.324-3.142-3.907-5.583-7.439-5.763z" fill="#ececec" stroke-width="1.061" style="paint-order:stroke markers fill"/></g><path d="m56.76 32.46c-0.1866-0.3435 0.8235-12.38-12.41-13.9" fill="none" stroke="#333" stroke-linecap="round" stroke-linejoin="round" stroke-width="1.84" style="paint-order:stroke markers fill"/><path d="m52.49 31.64c-0.1204-0.2216 0.5311-7.981-8.003-8.962" fill="none" stroke="#333" stroke-linecap="round" stroke-linejoin="round" stroke-width="1.187" style="paint-order:stroke markers fill"/></svg>
